G75*
%MOIN*%
%OFA0B0*%
%FSLAX25Y25*%
%IPPOS*%
%LPD*%
%AMOC8*
5,1,8,0,0,1.08239X$1,22.5*
%
%ADD10C,0.00000*%
D10*
X0001000Y0001000D02*
X0130528Y0224622D01*
X0260055Y0001000D01*
X0001000Y0001000D01*
X0018716Y0011630D02*
X0018718Y0011718D01*
X0018724Y0011806D01*
X0018734Y0011894D01*
X0018748Y0011982D01*
X0018765Y0012068D01*
X0018787Y0012154D01*
X0018812Y0012238D01*
X0018842Y0012322D01*
X0018874Y0012404D01*
X0018911Y0012484D01*
X0018951Y0012563D01*
X0018995Y0012640D01*
X0019042Y0012715D01*
X0019092Y0012787D01*
X0019146Y0012858D01*
X0019202Y0012925D01*
X0019262Y0012991D01*
X0019324Y0013053D01*
X0019390Y0013113D01*
X0019457Y0013169D01*
X0019528Y0013223D01*
X0019600Y0013273D01*
X0019675Y0013320D01*
X0019752Y0013364D01*
X0019831Y0013404D01*
X0019911Y0013441D01*
X0019993Y0013473D01*
X0020077Y0013503D01*
X0020161Y0013528D01*
X0020247Y0013550D01*
X0020333Y0013567D01*
X0020421Y0013581D01*
X0020509Y0013591D01*
X0020597Y0013597D01*
X0020685Y0013599D01*
X0020773Y0013597D01*
X0020861Y0013591D01*
X0020949Y0013581D01*
X0021037Y0013567D01*
X0021123Y0013550D01*
X0021209Y0013528D01*
X0021293Y0013503D01*
X0021377Y0013473D01*
X0021459Y0013441D01*
X0021539Y0013404D01*
X0021618Y0013364D01*
X0021695Y0013320D01*
X0021770Y0013273D01*
X0021842Y0013223D01*
X0021913Y0013169D01*
X0021980Y0013113D01*
X0022046Y0013053D01*
X0022108Y0012991D01*
X0022168Y0012925D01*
X0022224Y0012858D01*
X0022278Y0012787D01*
X0022328Y0012715D01*
X0022375Y0012640D01*
X0022419Y0012563D01*
X0022459Y0012484D01*
X0022496Y0012404D01*
X0022528Y0012322D01*
X0022558Y0012238D01*
X0022583Y0012154D01*
X0022605Y0012068D01*
X0022622Y0011982D01*
X0022636Y0011894D01*
X0022646Y0011806D01*
X0022652Y0011718D01*
X0022654Y0011630D01*
X0022652Y0011542D01*
X0022646Y0011454D01*
X0022636Y0011366D01*
X0022622Y0011278D01*
X0022605Y0011192D01*
X0022583Y0011106D01*
X0022558Y0011022D01*
X0022528Y0010938D01*
X0022496Y0010856D01*
X0022459Y0010776D01*
X0022419Y0010697D01*
X0022375Y0010620D01*
X0022328Y0010545D01*
X0022278Y0010473D01*
X0022224Y0010402D01*
X0022168Y0010335D01*
X0022108Y0010269D01*
X0022046Y0010207D01*
X0021980Y0010147D01*
X0021913Y0010091D01*
X0021842Y0010037D01*
X0021770Y0009987D01*
X0021695Y0009940D01*
X0021618Y0009896D01*
X0021539Y0009856D01*
X0021459Y0009819D01*
X0021377Y0009787D01*
X0021293Y0009757D01*
X0021209Y0009732D01*
X0021123Y0009710D01*
X0021037Y0009693D01*
X0020949Y0009679D01*
X0020861Y0009669D01*
X0020773Y0009663D01*
X0020685Y0009661D01*
X0020597Y0009663D01*
X0020509Y0009669D01*
X0020421Y0009679D01*
X0020333Y0009693D01*
X0020247Y0009710D01*
X0020161Y0009732D01*
X0020077Y0009757D01*
X0019993Y0009787D01*
X0019911Y0009819D01*
X0019831Y0009856D01*
X0019752Y0009896D01*
X0019675Y0009940D01*
X0019600Y0009987D01*
X0019528Y0010037D01*
X0019457Y0010091D01*
X0019390Y0010147D01*
X0019324Y0010207D01*
X0019262Y0010269D01*
X0019202Y0010335D01*
X0019146Y0010402D01*
X0019092Y0010473D01*
X0019042Y0010545D01*
X0018995Y0010620D01*
X0018951Y0010697D01*
X0018911Y0010776D01*
X0018874Y0010856D01*
X0018842Y0010938D01*
X0018812Y0011022D01*
X0018787Y0011106D01*
X0018765Y0011192D01*
X0018748Y0011278D01*
X0018734Y0011366D01*
X0018724Y0011454D01*
X0018718Y0011542D01*
X0018716Y0011630D01*
X0229740Y0013205D02*
X0229742Y0013293D01*
X0229748Y0013381D01*
X0229758Y0013469D01*
X0229772Y0013557D01*
X0229789Y0013643D01*
X0229811Y0013729D01*
X0229836Y0013813D01*
X0229866Y0013897D01*
X0229898Y0013979D01*
X0229935Y0014059D01*
X0229975Y0014138D01*
X0230019Y0014215D01*
X0230066Y0014290D01*
X0230116Y0014362D01*
X0230170Y0014433D01*
X0230226Y0014500D01*
X0230286Y0014566D01*
X0230348Y0014628D01*
X0230414Y0014688D01*
X0230481Y0014744D01*
X0230552Y0014798D01*
X0230624Y0014848D01*
X0230699Y0014895D01*
X0230776Y0014939D01*
X0230855Y0014979D01*
X0230935Y0015016D01*
X0231017Y0015048D01*
X0231101Y0015078D01*
X0231185Y0015103D01*
X0231271Y0015125D01*
X0231357Y0015142D01*
X0231445Y0015156D01*
X0231533Y0015166D01*
X0231621Y0015172D01*
X0231709Y0015174D01*
X0231797Y0015172D01*
X0231885Y0015166D01*
X0231973Y0015156D01*
X0232061Y0015142D01*
X0232147Y0015125D01*
X0232233Y0015103D01*
X0232317Y0015078D01*
X0232401Y0015048D01*
X0232483Y0015016D01*
X0232563Y0014979D01*
X0232642Y0014939D01*
X0232719Y0014895D01*
X0232794Y0014848D01*
X0232866Y0014798D01*
X0232937Y0014744D01*
X0233004Y0014688D01*
X0233070Y0014628D01*
X0233132Y0014566D01*
X0233192Y0014500D01*
X0233248Y0014433D01*
X0233302Y0014362D01*
X0233352Y0014290D01*
X0233399Y0014215D01*
X0233443Y0014138D01*
X0233483Y0014059D01*
X0233520Y0013979D01*
X0233552Y0013897D01*
X0233582Y0013813D01*
X0233607Y0013729D01*
X0233629Y0013643D01*
X0233646Y0013557D01*
X0233660Y0013469D01*
X0233670Y0013381D01*
X0233676Y0013293D01*
X0233678Y0013205D01*
X0233676Y0013117D01*
X0233670Y0013029D01*
X0233660Y0012941D01*
X0233646Y0012853D01*
X0233629Y0012767D01*
X0233607Y0012681D01*
X0233582Y0012597D01*
X0233552Y0012513D01*
X0233520Y0012431D01*
X0233483Y0012351D01*
X0233443Y0012272D01*
X0233399Y0012195D01*
X0233352Y0012120D01*
X0233302Y0012048D01*
X0233248Y0011977D01*
X0233192Y0011910D01*
X0233132Y0011844D01*
X0233070Y0011782D01*
X0233004Y0011722D01*
X0232937Y0011666D01*
X0232866Y0011612D01*
X0232794Y0011562D01*
X0232719Y0011515D01*
X0232642Y0011471D01*
X0232563Y0011431D01*
X0232483Y0011394D01*
X0232401Y0011362D01*
X0232317Y0011332D01*
X0232233Y0011307D01*
X0232147Y0011285D01*
X0232061Y0011268D01*
X0231973Y0011254D01*
X0231885Y0011244D01*
X0231797Y0011238D01*
X0231709Y0011236D01*
X0231621Y0011238D01*
X0231533Y0011244D01*
X0231445Y0011254D01*
X0231357Y0011268D01*
X0231271Y0011285D01*
X0231185Y0011307D01*
X0231101Y0011332D01*
X0231017Y0011362D01*
X0230935Y0011394D01*
X0230855Y0011431D01*
X0230776Y0011471D01*
X0230699Y0011515D01*
X0230624Y0011562D01*
X0230552Y0011612D01*
X0230481Y0011666D01*
X0230414Y0011722D01*
X0230348Y0011782D01*
X0230286Y0011844D01*
X0230226Y0011910D01*
X0230170Y0011977D01*
X0230116Y0012048D01*
X0230066Y0012120D01*
X0230019Y0012195D01*
X0229975Y0012272D01*
X0229935Y0012351D01*
X0229898Y0012431D01*
X0229866Y0012513D01*
X0229836Y0012597D01*
X0229811Y0012681D01*
X0229789Y0012767D01*
X0229772Y0012853D01*
X0229758Y0012941D01*
X0229748Y0013029D01*
X0229742Y0013117D01*
X0229740Y0013205D01*
X0128559Y0205331D02*
X0128561Y0205419D01*
X0128567Y0205507D01*
X0128577Y0205595D01*
X0128591Y0205683D01*
X0128608Y0205769D01*
X0128630Y0205855D01*
X0128655Y0205939D01*
X0128685Y0206023D01*
X0128717Y0206105D01*
X0128754Y0206185D01*
X0128794Y0206264D01*
X0128838Y0206341D01*
X0128885Y0206416D01*
X0128935Y0206488D01*
X0128989Y0206559D01*
X0129045Y0206626D01*
X0129105Y0206692D01*
X0129167Y0206754D01*
X0129233Y0206814D01*
X0129300Y0206870D01*
X0129371Y0206924D01*
X0129443Y0206974D01*
X0129518Y0207021D01*
X0129595Y0207065D01*
X0129674Y0207105D01*
X0129754Y0207142D01*
X0129836Y0207174D01*
X0129920Y0207204D01*
X0130004Y0207229D01*
X0130090Y0207251D01*
X0130176Y0207268D01*
X0130264Y0207282D01*
X0130352Y0207292D01*
X0130440Y0207298D01*
X0130528Y0207300D01*
X0130616Y0207298D01*
X0130704Y0207292D01*
X0130792Y0207282D01*
X0130880Y0207268D01*
X0130966Y0207251D01*
X0131052Y0207229D01*
X0131136Y0207204D01*
X0131220Y0207174D01*
X0131302Y0207142D01*
X0131382Y0207105D01*
X0131461Y0207065D01*
X0131538Y0207021D01*
X0131613Y0206974D01*
X0131685Y0206924D01*
X0131756Y0206870D01*
X0131823Y0206814D01*
X0131889Y0206754D01*
X0131951Y0206692D01*
X0132011Y0206626D01*
X0132067Y0206559D01*
X0132121Y0206488D01*
X0132171Y0206416D01*
X0132218Y0206341D01*
X0132262Y0206264D01*
X0132302Y0206185D01*
X0132339Y0206105D01*
X0132371Y0206023D01*
X0132401Y0205939D01*
X0132426Y0205855D01*
X0132448Y0205769D01*
X0132465Y0205683D01*
X0132479Y0205595D01*
X0132489Y0205507D01*
X0132495Y0205419D01*
X0132497Y0205331D01*
X0132495Y0205243D01*
X0132489Y0205155D01*
X0132479Y0205067D01*
X0132465Y0204979D01*
X0132448Y0204893D01*
X0132426Y0204807D01*
X0132401Y0204723D01*
X0132371Y0204639D01*
X0132339Y0204557D01*
X0132302Y0204477D01*
X0132262Y0204398D01*
X0132218Y0204321D01*
X0132171Y0204246D01*
X0132121Y0204174D01*
X0132067Y0204103D01*
X0132011Y0204036D01*
X0131951Y0203970D01*
X0131889Y0203908D01*
X0131823Y0203848D01*
X0131756Y0203792D01*
X0131685Y0203738D01*
X0131613Y0203688D01*
X0131538Y0203641D01*
X0131461Y0203597D01*
X0131382Y0203557D01*
X0131302Y0203520D01*
X0131220Y0203488D01*
X0131136Y0203458D01*
X0131052Y0203433D01*
X0130966Y0203411D01*
X0130880Y0203394D01*
X0130792Y0203380D01*
X0130704Y0203370D01*
X0130616Y0203364D01*
X0130528Y0203362D01*
X0130440Y0203364D01*
X0130352Y0203370D01*
X0130264Y0203380D01*
X0130176Y0203394D01*
X0130090Y0203411D01*
X0130004Y0203433D01*
X0129920Y0203458D01*
X0129836Y0203488D01*
X0129754Y0203520D01*
X0129674Y0203557D01*
X0129595Y0203597D01*
X0129518Y0203641D01*
X0129443Y0203688D01*
X0129371Y0203738D01*
X0129300Y0203792D01*
X0129233Y0203848D01*
X0129167Y0203908D01*
X0129105Y0203970D01*
X0129045Y0204036D01*
X0128989Y0204103D01*
X0128935Y0204174D01*
X0128885Y0204246D01*
X0128838Y0204321D01*
X0128794Y0204398D01*
X0128754Y0204477D01*
X0128717Y0204557D01*
X0128685Y0204639D01*
X0128655Y0204723D01*
X0128630Y0204807D01*
X0128608Y0204893D01*
X0128591Y0204979D01*
X0128577Y0205067D01*
X0128567Y0205155D01*
X0128561Y0205243D01*
X0128559Y0205331D01*
M02*
