%
M48
M72
T01C0.03150
T02C0.03937
T03C0.04000
%
T01
X102516Y31472
X102516Y41472
X102516Y51472
X102516Y61472
X102516Y71472
X102516Y81472
X102516Y91472
X102516Y101472
X102516Y111472
X102516Y121472
X102516Y131472
X102516Y141472
X107516Y151472
X117516Y151472
X127516Y151472
X137516Y151472
X147516Y151472
X157516Y151472
X162516Y141472
X162516Y131472
X162516Y121472
X162516Y111472
X162516Y101472
X162516Y91472
X162516Y81472
X162516Y71472
X162516Y61472
X162516Y51472
X162516Y41472
X162516Y31472
X117516Y56472
X117516Y66472
X117516Y96472
X117516Y106472
T02
X20685Y11630
X231709Y13205
X130528Y205331
T03
X90528Y131476
X85528Y122816
X80528Y114155
X73027Y102142
X68027Y93482
X126669Y125154
X136669Y125154
X142201Y103697
X142201Y93697
X142201Y83697
X178028Y118484
X173028Y127144
X185529Y106472
X190529Y97812
X195529Y89152
X145528Y14622
X135528Y14622
X120528Y14619
X110528Y14619
X100528Y14619
M30
