G75*
%MOIN*%
%OFA0B0*%
%FSLAX25Y25*%
%IPPOS*%
%LPD*%
%AMOC8*
5,1,8,0,0,1.08239X$1,22.5*
%
%ADD10C,0.04737*%
%ADD11C,0.06800*%
%ADD12C,0.05524*%
D10*
X0020685Y0011630D03*
X0231709Y0013205D03*
X0130528Y0205331D03*
D11*
X0087929Y0132976D02*
X0093126Y0129976D01*
X0088126Y0121316D02*
X0082929Y0124316D01*
X0077929Y0115655D02*
X0083126Y0112655D01*
X0075625Y0100642D02*
X0070429Y0103642D01*
X0065429Y0094982D02*
X0070625Y0091982D01*
X0126669Y0122154D02*
X0126669Y0128154D01*
X0136669Y0128154D02*
X0136669Y0122154D01*
X0139201Y0103697D02*
X0145201Y0103697D01*
X0145201Y0093697D02*
X0139201Y0093697D01*
X0139201Y0083697D02*
X0145201Y0083697D01*
X0175430Y0116984D02*
X0180626Y0119984D01*
X0175626Y0128644D02*
X0170430Y0125644D01*
X0182931Y0104972D02*
X0188127Y0107972D01*
X0193127Y0099312D02*
X0187931Y0096312D01*
X0192931Y0087652D02*
X0198127Y0090652D01*
X0145528Y0017622D02*
X0145528Y0011622D01*
X0135528Y0011622D02*
X0135528Y0017622D01*
X0120528Y0017619D02*
X0120528Y0011619D01*
X0110528Y0011619D02*
X0110528Y0017619D01*
X0100528Y0017619D02*
X0100528Y0011619D01*
D12*
X0100154Y0031472D02*
X0104878Y0031472D01*
X0104878Y0041472D02*
X0100154Y0041472D01*
X0100154Y0051472D02*
X0104878Y0051472D01*
X0115154Y0056472D02*
X0119878Y0056472D01*
X0119878Y0066472D02*
X0115154Y0066472D01*
X0104878Y0061472D02*
X0100154Y0061472D01*
X0100154Y0071472D02*
X0104878Y0071472D01*
X0104878Y0081472D02*
X0100154Y0081472D01*
X0100154Y0091472D02*
X0104878Y0091472D01*
X0104878Y0101472D02*
X0100154Y0101472D01*
X0100154Y0111472D02*
X0104878Y0111472D01*
X0104878Y0121472D02*
X0100154Y0121472D01*
X0100154Y0131472D02*
X0104878Y0131472D01*
X0104878Y0141472D02*
X0100154Y0141472D01*
X0107516Y0149110D02*
X0107516Y0153835D01*
X0117516Y0153835D02*
X0117516Y0149110D01*
X0127516Y0149110D02*
X0127516Y0153835D01*
X0137516Y0153835D02*
X0137516Y0149110D01*
X0147516Y0149110D02*
X0147516Y0153835D01*
X0157516Y0153835D02*
X0157516Y0149110D01*
X0160154Y0141472D02*
X0164878Y0141472D01*
X0164878Y0131472D02*
X0160154Y0131472D01*
X0160154Y0121472D02*
X0164878Y0121472D01*
X0164878Y0111472D02*
X0160154Y0111472D01*
X0160154Y0101472D02*
X0164878Y0101472D01*
X0164878Y0091472D02*
X0160154Y0091472D01*
X0160154Y0081472D02*
X0164878Y0081472D01*
X0164878Y0071472D02*
X0160154Y0071472D01*
X0160154Y0061472D02*
X0164878Y0061472D01*
X0164878Y0051472D02*
X0160154Y0051472D01*
X0160154Y0041472D02*
X0164878Y0041472D01*
X0164878Y0031472D02*
X0160154Y0031472D01*
X0119878Y0096472D02*
X0115154Y0096472D01*
X0115154Y0106472D02*
X0119878Y0106472D01*
M02*
